<svg id="Layer_1" xmlns="http://www.w3.org/2000/svg" viewBox="0 0 900 868.2"><style>.st0,.st1{fill-rule:evenodd;clip-rule:evenodd;fill:#111142}.st1{fill:#bc2172}</style><path class="st0" d="M380.3 1002.6c21.4-66.8 115.9-67 137.5-.2l3.9 12.1 53.8 165.4-252.2.5 50.9-158.9 6.1-18.9zM696.4 1549.9l51.1 155.1 6.7 20.3c21.9 66.6-54.4 122.3-111.1 81l-149.5-108.6 202.8-147.8z" transform="translate(0 -952.362)"/><g><path class="st1" d="M591.8 1229.9l234.2-.9c71.4-.3 101.3 91.2 43.5 133.1L680 1499.9l-229.5 167.4-188.8 138.3c-57.6 42.2-135.6-14.2-113.5-82.1l72.2-222.3c-.1-.3-.1-.4-.2-.7l-161-116.2-28.5-20.6c-57.9-41.8-28.3-133.3 43.1-133.3l234 .1 284-.6z" transform="translate(0 -952.362)"/></g></svg>