<svg width="6" height="13" viewBox="0 0 6 13" xmlns="http://www.w3.org/2000/svg"><title>380DD598-1A31-4615-9B42-1B2F70B59572</title><path d="M4.14 4.483c.358 0 .568.168.568.525 0 .294-.042.589-.105.883l-.588 3.256c-.063.357-.147.715-.19 1.072-.02.168 0 .357.043.525.063.231.23.357.462.315.19-.02.378-.084.567-.168.147-.063.273-.168.42-.21.273-.105.463.063.4.294a1 1 0 0 1-.21.357c-.547.568-1.22.883-1.997.904-.378 0-.735 0-1.113-.063-.61-.084-1.387-.84-1.26-1.64l.251-1.638.505-2.836c0-.063.02-.126.02-.19 0-.399-.125-.545-.525-.588-.167-.02-.336-.042-.504-.084a.395.395 0 0 1-.273-.378c.021-.168.126-.273.336-.315.105-.02.231-.02.336-.02h2.858zM3.575.723c.84 0 1.512.693 1.491 1.533 0 .84-.693 1.534-1.513 1.513-.84 0-1.533-.694-1.512-1.534 0-.84.693-1.513 1.534-1.513z" fill="#101141" fill-rule="evenodd"/></svg>