<svg xmlns="http://www.w3.org/2000/svg" xmlns:xlink="http://www.w3.org/1999/xlink" viewBox="0 0 892 892"><defs><linearGradient id="a" x1="425.2" y1="47" x2="425.2" y2="-491.03" gradientTransform="translate(21 771)" gradientUnits="userSpaceOnUse"><stop offset="0" stop-color="#174c33"/><stop offset=".25" stop-color="#1b5e43"/></linearGradient><clipPath id="b" transform="translate(21 18)"><ellipse cx="425.2" cy="425.6" rx="366.4" ry="363.4" fill="none"/></clipPath><linearGradient id="c" x1="424.2" y1="-81" x2="424.2" y2="-589.02" xlink:href="#a"/><clipPath id="d" transform="translate(21 18)"><circle cx="424.2" cy="425.6" r="191.6" fill="none"/></clipPath></defs><title>logo_vector_effects_final</title><path fill="#fff" d="M446.2 18l28 33.8 32.5-29.5 22.9 37.5L566 35.2l17.3 40.4 39.5-19.2 11.4 42.4 41.9-13.3 5.3 43.6 43.2-7.3-.9 43.9 43.8-.9-7.2 43.2 43.6 5.3-13.3 41.8 42.4 11.4-19.2 39.6 40.4 17.3-24.6 36.4 37.5 22.9-29.5 32.5 33.8 28-33.8 28 29.5 32.5-37.5 22.9 24.6 36.4-40.4 17.3 19.2 39.5-42.4 11.4 13.3 41.9-43.6 5.2 7.2 43.3-43.8-.9.9 43.8-43.2-7.2-5.3 43.6-41.9-13.3-11.4 42.4-39.5-19.2-17.3 40.4-36.4-24.6-22.9 37.5-32.5-29.5-28 33.8-28-33.8-32.5 29.5-22.9-37.5-36.4 24.6-17.3-40.4-39.5 19.2-11.5-42.4-41.8 13.3-5.3-43.6-43.3 7.2 1-43.8-43.9.9 7.3-43.3-43.6-5.2 13.3-41.9-42.4-11.4 19.1-39.5L38.2 563l24.6-36.4-37.5-22.9 29.5-32.5-33.8-28 33.8-28-29.5-32.5 37.5-22.9-24.6-36.4 40.3-17.3-19.1-39.6 42.4-11.4-13.3-41.8 43.6-5.3-7.3-43.2 43.9.9-1-43.9 43.3 7.3 5.3-43.6 41.8 13.3 11.5-42.4 39.5 19.2 17.3-40.4 36.4 24.6 22.9-37.5 32.5 29.5 28-33.8z"/><path d="M446.2 24.3l24.9 30.1 2.7 3.2 3.1-2.8 28.9-26.2 20.4 33.3 2.2 3.6 3.5-2.3 32.4-21.9 15.4 35.9 1.7 3.8 3.8-1.8 35.2-17 10.2 37.7 1.1 4 4-1.3 37.2-11.8 4.7 38.8.5 4.2 4.1-.7 38.5-6.4-.9 39.1v4.2h4.2l39-.9-6.4 38.5-.7 4.1 4.2.5 38.8 4.7L787 254l-1.3 4 4 1.1 37.7 10.2-17 35.2-1.8 3.8 3.8 1.7 35.9 15.4-21.9 32.4-2.3 3.5 3.6 2.2 33.3 20.4-26.2 28.9-2.8 3.1 3.2 2.7 30.1 24.9-30.3 24.6-3.2 2.7 2.8 3.1 26.2 28.9-33.3 20.4-3.6 2.2 2.3 3.5 21.9 32.4-35.9 15.4-3.8 1.7 1.8 3.8 17 35.2-37.7 10.2-4 1.1 1.3 4 11.8 37.2-38.8 4.7-4.2.5.7 4.1 6.4 38.5-39-.9h-4.2v4.2l.9 39.1-38.4-6.5-4.1-.7-.5 4.2-4.7 38.8-37.2-11.8-4-1.3-1.1 4-10.2 37.7-35.2-17-3.8-1.8-1.7 3.8-15.4 35.9-32.4-21.9-3.5-2.3-2.2 3.6-20.4 33.3-28.9-26.2-3.1-2.8-2.7 3.2-24.9 30.1-24.7-30.4-2.7-3.2-3.1 2.8-28.9 26.2-20.4-33.3-2.2-3.6-3.5 2.3-32.4 21.9-15.4-35.9-1.7-3.8-3.8 1.8-35.2 17-10-37.7-1.1-4-4 1.3-37.2 11.8-4.7-38.8-.5-4.2-4.1.7-38.5 6.4.9-39v-4.2h-4.2l-39.1.9L136 679l.7-4.1-4.2-.5-38.8-4.7 11.8-37.2 1.3-4-4-1.1-37.7-10.2 17-35.2 1.8-3.8-3.8-1.7-35.9-15.4 21.9-32.4 2.3-3.5-3.6-2.2-33.3-20.4 26.2-28.9 2.8-3.1-3.2-2.7-30-24.7 30.1-24.9 3.2-2.7-2.8-3.1-26.2-28.9 33.3-20.4 3.6-2.2-2.3-3.5-21.9-32.4 35.9-15.4L84 308l-1.8-3.8-17-35.2 37.6-10 4-1.1-1.3-4-11.8-37.2 38.8-4.7 4.2-.5-.7-4.1-6.4-38.5 39.1.9h4.2v-4.2l-.9-39.1 38.5 6.4 4.1.7.5-4.2 4.7-38.8 37.2 11.8 4 1.3 1.1-4L272.3 62l35.2 17 3.8 1.8L313 77l15.4-35.9L360.8 63l3.5 2.3 2.2-3.6 20.4-33.3 28.9 26.2 3.1 2.8 2.7-3.2 24.7-30m0-6.3l-28 33.8-32.6-29.4-22.9 37.5-36.4-24.6-17.3 40.3-39.5-19.1-11.4 42.4-41.8-13.3-5.3 43.6-43.3-7.2 1 43.9-43.9-1 7.2 43.3-43.6 5.3 13.3 41.8-42.4 11.4 19.1 39.5-40.3 17.3 24.6 36.4-37.5 22.9 29.5 32.5-33.8 28 33.8 28-29.5 32.5 37.5 22.9L38.2 563l40.3 17.3-19.1 39.5 42.4 11.4L88.5 673l43.6 5.3-7.2 43.3 43.9-1-1 43.9 43.3-7.2 5.3 43.6 41.8-13.3 11.4 42.4 39.5-19.1 17.3 40.3 36.4-24.6 22.9 37.5 32.5-29.5 28 33.8 28-33.8 32.5 29.5 22.9-37.5 36.4 24.6 17.3-40.3 39.5 19.1 11.4-42.4 41.8 13.3 5.3-43.6 43.3 7.2-1-43.9 43.9 1-7.2-43.3 43.6-5.3-13.3-41.8 42.4-11.4-19.1-39.5 40.3-17.3-24.6-36.4 37.5-22.9-29.5-32.5 33.8-28-33.8-28 29.5-32.5-37.5-22.9 24.6-36.4-40.3-17.3 19.1-39.5-42.4-11.4 13.3-41.8-43.6-5.3 7.2-43.3-43.9 1 1-43.9-43.3 7.2-5.3-43.6-41.8 13.3-11.4-42.4-39.5 19.1L566 35.2l-36.4 24.6-22.9-37.5-32.5 29.5-28-33.8z" fill="#1b5e43"/><ellipse cx="446.2" cy="443.6" rx="366.4" ry="363.4" fill="url(#a)"/><g clip-path="url(#b)"><path d="M0 0v892h892V0H0zm446.2 854C233.6 854 61.4 680.8 61.4 467.1S233.7 80.2 446.2 80.2 831 253.4 831 467.1 658.7 854 446.2 854z" fill="#5d006d"/></g><path d="M159.2 599.6l82.9-41.8 2.7 5.4-82.9 41.8zM230.6 693.9l10.6-49.1-19.2-20.2-30.1 28.7-4.2-4.4 67.2-64 29.1 30.5c11.2 11.7 10 27.3-.2 37s-26.1 9.8-37.7-2.5L235.5 699zm19.7-46.9c8.8 9.2 21.1 8.6 29.2.9s9.4-20 .6-29.3l-24.6-25.8-29.8 28.4zM281 729.2l38.3-84.5 55.1 25-2.1 4.6-49.6-22.5-15.1 33.4 37.7 17.1-2.1 4.6-37.7-17.1-16.9 37.4 52.2 23.7-2.1 4.6zM377.5 764.6l11.2-92.1 6 .7-10.6 87.1 51.1 6.2-.6 5zM535.5 758.6l-15-24.5-44.7 8.2-5.3 28.2-6.2 1.1 18.6-97.8 6.6-1.2 52.2 84.8zm-48.1-78.7l-10.7 57.4 41.3-7.6zM642.9 703.9l-94.7-39.4 44.9 70.9-5.1 3.2-49.7-78.4 5.6-3.5 94.9 39.4-45-71 5.1-3.2 49.7 78.4zM695.7 653.2l-78.4-49.7 16.9-26.6c13.4-21.2 39.2-23 60.8-9.3s31 37.8 17.6 59zm12.7-29.3c11.2-17.7 2.7-38.7-16.7-51s-42-11-53.2 6.7l-13.7 21.5 69.9 44.3zM244.6 327.5l-79.9-60.9 37.1-48.7 4.3 3.3-33.4 43.9 31.6 24.1 25.4-33.4 4.3 3.3-25.4 33.4 35.3 26.9 35.2-46.2 4.3 3.3zM285.4 246.1c10.6 8.2 22.4 8.8 33.5 1.9 13.9-8.7 17.6-21.2 10.3-32.9-4.8-7.8-14.8-10.1-38.8-4.9-20.8 4.5-31.1 1.2-37.3-8.8-8.7-13.9-1.2-28 13.2-37 11.7-7.3 24.4-8.3 36.4-2.8l-2.1 5.7c-10.6-4.9-21.2-4.6-31.8 2s-17.2 17.8-10.6 28.3 13.3 10.1 32.6 6.3c26.9-5.3 37.7-1.8 44.1 8.4 9.2 14.8 2.2 30.8-13.4 40.5-11.9 7.4-25.4 8.1-39-1.1zM434.7 195.5c-4.6 13.5-14.7 23.5-29.5 26-25 4.2-44.2-16.2-49-44.6s7-53.9 32-58.1c16.9-2.8 30.8 5.4 39.7 20l-5.4 3.1c-7.7-12.7-19.4-20.1-33.4-17.7-20.9 3.5-30.9 26.2-26.6 51.7s20.9 43.9 41.8 40.3c12.2-2 20.3-10.4 24.3-22zM468.8 165.3c7.2-28 28-46.6 52.6-40.3s33.9 32.7 26.7 60.7-28 46.5-52.6 40.2-33.9-32.6-26.7-60.6zm73.1 18.8c6.4-25-1.2-48.5-21.9-53.8s-38.6 11.6-45.1 36.7 1.4 48.4 21.9 53.7 38.7-11.6 45.1-36.6zM602.7 284l5.6-53-22.1-17.5-28 35.2-4.8-3.8 62.5-78.7 33.4 26.5c12.8 10.2 13.3 26.6 3.9 38.5s-25.9 14.8-39.3 4.2l-5.6 53zm15.2-52.3c10.1 8 22.8 5.1 30.3-4.4s7.5-22.5-2.6-30.5l-28.3-22.5-27.7 34.9zM630.2 322.8l81.6-48.6-15.9-26.7 4.7-2.8 35 58.8-4.5 2.7-16-26.8-81.8 48.6z" fill="#fff"/><circle cx="445" cy="443.6" r="198.6" fill="#fff"/><circle cx="445.2" cy="443.6" r="191.6" fill="url(#c)"/><g clip-path="url(#d)"><path d="M212 204v472h466V204H212zm233.2 431.2c-105.8 0-191.6-85.8-191.6-191.6S339.4 252 445.2 252s191.6 85.8 191.6 191.6S551 635.2 445.2 635.2z" fill="#666"/></g><path fill="#fff" d="M723.6 420.2l7.5 15.1 16.6 2.4-12 11.8 2.8 16.6-14.9-7.9-14.9 7.9 2.9-16.6-12.1-11.8 16.7-2.4 7.4-15.1zM166.6 420.2l7.5 15.1 16.6 2.4-12 11.8 2.8 16.6-14.9-7.9-14.9 7.9 2.9-16.6-12.1-11.8 16.7-2.4 7.4-15.1zM358 505.1V382.8h86.6V401h-66.1v31h50.3v18l-50.3-.2V487H448v18.1h-90zM449.8 451.8V434h38.3v18zM509.8 505.1V382.8H530v122.3h-20.2z"/></svg>