<svg xmlns="http://www.w3.org/2000/svg" xmlns:xlink="http://www.w3.org/1999/xlink" viewBox="0 0 850.4 850.4"><defs><linearGradient id="a" x1="487.41" y1="-758" x2="487.41" y2="-1296.03" gradientTransform="translate(0 1558)" gradientUnits="userSpaceOnUse"><stop offset="0" stop-color="#0b3d57"/><stop offset=".25" stop-color="#0e4b6a"/></linearGradient><linearGradient id="b" x1="600.59" y1="-758" x2="600.59" y2="-1296.03" xlink:href="#a"/><linearGradient id="c" x1="535.7" y1="-758" x2="535.7" y2="-1296.03" xlink:href="#a"/><linearGradient id="d" x1="318.22" y1="-758" x2="318.22" y2="-1296.03" xlink:href="#a"/><linearGradient id="e" x1="425.2" y1="-758" x2="425.2" y2="-1296.03" xlink:href="#a"/><linearGradient id="f" x1="669.3" y1="-758.04" x2="669.3" y2="-1296.07" xlink:href="#a"/><linearGradient id="g" x1="424.2" y1="-886" x2="424.2" y2="-1394.02" xlink:href="#a"/></defs><title>scotland_logo_vector_effects_final</title><path d="M811 397.9l2.8-3.1 26.2-28.9-33.3-20.4-3.6-2.2 2.3-3.5 21.9-32.4-35.9-15.4-3.8-1.7 1.8-3.8 17-35.2-37.7-10.2-4-1.1 1.3-4 11.8-37.2-38.8-4.7-4.2-.5.7-4.1 6.4-38.5-39 .9h-4.2v-4.2l.9-39.1-38.5 6.4-4.1.7-.5-4.2-4.7-38.8-37.1 11.9-4 1.3-1.1-4-10.2-37.7-35.2 17-3.8 1.8-1.7-3.8-15.4-35.9-32.4 21.9-3.5 2.3-2.2-3.6-20.4-33.3-28.9 26.2-3.1 2.8-2.7-3.2-24.9-30.1-24.7 30-2.7 3.2-3.1-2.8-28.9-26.2-20.4 33.3-2.2 3.6-3.5-2.3-32.4-21.9-15.4 35.9-1.7 3.8-3.8-1.8-35.2-17L241 81.8l-1.1 4-4-1.3-37.2-11.8-4.7 38.8-.5 4.2-4.1-.7-38.5-6.4.9 39.1v4.2h-4.2l-39.1-.9 6.4 38.5.7 4.1-4.2.5-38.8 4.7L84.4 236l1.3 4-4 1.1-37.5 9.9 17 35.2L63 290l-3.8 1.7-35.9 15.4 21.9 32.4 2.3 3.5-3.6 2.2-33.3 20.4 26.2 28.9 2.8 3.1-3.2 2.7-30.1 24.9 30 24.7 3.2 2.7-2.8 3.1-26.2 28.9L43.8 505l3.6 2.2-2.3 3.5-21.9 32.4 35.9 15.4 3.8 1.7-1.8 3.8-17 35.2 37.7 10.2 4 1.1-1.3 4-11.8 37.2 38.8 4.7 4.2.5-.7 4.1-6.4 38.5 39.1-.9h4.2v4.2l-.9 39 38.5-6.4 4.1-.7.5 4.2 4.7 38.8 37.2-11.8 4-1.3 1.1 4 10 37.7 35.2-17 3.8-1.8 1.7 3.8 15.4 35.9 32.4-21.9 3.5-2.3 2.2 3.6 20.4 33.3 28.9-26.2 3.1-2.8 2.7 3.2 24.6 30.3 24.9-30.1 2.7-3.2 3.1 2.8 28.9 26.2 20.4-33.3 2.2-3.6 3.5 2.3 32.4 21.9 15.4-35.9 1.7-3.8 3.8 1.8 35.2 17 10.2-37.7 1.1-4 4 1.3 37.2 11.8 4.7-38.8.5-4.2 4.1.7 38.5 6.4-.9-39.1v-4.2h4.2l39 .9-6.4-38.5-.7-4.1 4.2-.5 38.8-4.7-11.8-37.2-1.3-4 4-1.1 37.7-10.2-17-35.2-1.8-3.8 3.8-1.7 35.9-15.4-21.9-32.4-2.3-3.5 3.6-2.2 33.3-20.4-26.2-28.9-2.8-3.1 3.2-2.7 30.3-24.6-30.1-24.9zM425.2 789C222.8 789 58.8 626.3 58.8 425.6c0-199.1 161.5-360.8 361.6-363.4h9.6c200.2 2.5 361.6 164.2 361.6 363.4S627.6 789 425.2 789z" fill="#fff"/><path d="M846.1 364.7l-37.5-22.9 24.6-36.4-40.3-17.3 19.1-39.5-42.4-11.4 13.3-41.8-43.6-5.3 7.2-43.3-43.9 1 1-43.9-43.3 7.2-5.3-43.6-41.8 13.3-11.4-42.4-39.5 19.1L545 17.2l-36.4 24.6-22.9-37.5-32.5 29.5-28-33.8-28 33.8-32.5-29.5-22.9 37.5-36.4-24.6-17.3 40.3-39.5-19.1-11.4 42.4-41.8-13.3-5.3 43.6-43.3-7.2 1 43.9-43.9-1 7.2 43.3-43.6 5.3 13.3 41.8-42.4 11.4 19.1 39.5-40.3 17.3 24.6 36.4-37.5 22.9 29.5 32.5-33.8 28 33.8 28-29.5 32.5 37.5 22.9L17.2 545l40.3 17.3-19.1 39.5 42.4 11.4L67.5 655l43.6 5.3-7.2 43.3 43.9-1-1 43.9 43.3-7.2 5.3 43.6 41.8-13.3 11.4 42.4 39.5-19.1 17.3 40.3 36.4-24.6 22.9 37.5 32.5-29.5 28 33.8 28-33.8 32.5 29.5 22.9-37.5 36.4 24.6 17.3-40.3 39.5 19.1 11.4-42.4 41.8 13.3 5.3-43.6 43.3 7.2-1-43.9 43.9 1-7.2-43.3 43.6-5.3-13.3-41.8 42.4-11.4-19.1-39.5 40.3-17.3-24.6-36.4 37.5-22.9-29.5-32.5 33.8-28-33.8-28zm-1.8 60.8L814 450.1l-3.2 2.7 2.8 3.1 26.2 28.9-33.3 20.4-3.6 2.2 2.3 3.5 21.9 32.4-35.9 15.4-3.8 1.7 1.8 3.8 17 35.2-37.7 10.2-4 1.1 1.3 4 11.8 37.2-38.8 4.7-4.2.5.7 4.1 6.4 38.5-39-.9h-4.2v4.2l.9 39.1-38.4-6.5-4.1-.7-.5 4.2-4.7 38.8-37.2-11.8-4-1.3-1.1 4-10.2 37.7-35.2-17-3.8-1.8-1.7 3.8-15.4 35.9-32.4-21.9-3.5-2.3-2.2 3.6-20.4 33.3-28.9-26.2-3.1-2.8-2.7 3.2-24.9 30.1-24.7-30.4-2.7-3.2-3.1 2.8-28.9 26.2-20.4-33.3-2.2-3.6-3.5 2.3-32.4 21.9-15.4-35.9-1.7-3.8-3.8 1.8-35.2 17-10-37.7-1.1-4-4 1.3-37.2 11.8-4.7-38.8-.5-4.2-4.1.7-38.5 6.4.9-39v-4.2h-4.2l-39.1.9L115 661l.7-4.1-4.2-.5-38.8-4.7 11.8-37.2 1.3-4-4-1.1-37.7-10.2 17-35.2 1.8-3.8-3.8-1.7-35.9-15.4 21.9-32.4 2.3-3.5-3.6-2.2-33.3-20.4 26.2-28.9 2.8-3.1-3.2-2.7-30-24.7 30.1-24.9 3.2-2.7-2.8-3.1-26.2-28.9 33.3-20.4 3.6-2.2-2.3-3.5-21.9-32.4 35.9-15.4L63 290l-1.8-3.8-17-35.2 37.6-10 4-1.1-1.3-4-11.8-37.2 38.8-4.7 4.2-.5-.7-4.1-6.4-38.5 39.1.9h4.2v-4.2l-.9-39.1 38.5 6.4 4.1.7.5-4.2 4.7-38.8L236 84.4l4 1.3 1.1-4L251.3 44l35.2 17 3.8 1.8L292 59l15.4-35.9L339.8 45l3.5 2.3 2.2-3.6 20.4-33.3 28.9 26.2 3.1 2.8 2.7-3.2 24.7-30 24.9 30.1 2.7 3.2 3.1-2.8 28.9-26.2 20.4 33.3 2.2 3.6 3.5-2.3 32.4-21.9 15.4 35.9 1.7 3.8 3.8-1.8 35.2-17 10.2 37.7 1.1 4 4-1.3L652 72.7l4.7 38.8.5 4.2 4.1-.7 38.5-6.4-.9 39.1v4.3h4.2l39-.9-6.4 38.5-.7 4.1 4.2.5 38.8 4.7-12 37.1-1.3 4 4 1.1 37.7 10.2-17 35.2-1.8 3.8 3.8 1.7 35.9 15.4-21.9 32.4-2.3 3.5 3.6 2.2 33.3 20.4-26.2 28.9-2.8 3.1 3.2 2.7z" fill="#0b3d57"/><path d="M475.8 202.7c20.8 5.2 38.7-11.6 45.1-36.6s-1.2-48.5-21.9-53.8-38.6 11.6-45.1 36.7 1.4 48.4 21.9 53.7z" fill="#fff"/><path d="M475.8 202.7c20.8 5.2 38.7-11.6 45.1-36.6s-1.2-48.5-21.9-53.8-38.6 11.6-45.1 36.7 1.4 48.4 21.9 53.7z" fill="url(#a)"/><path d="M568.6 191.2l28.3 22.5c10.1 8 22.8 5.1 30.3-4.4s7.5-22.5-2.6-30.5l-28.3-22.5z" fill="#fff"/><path d="M568.6 191.2l28.3 22.5c10.1 8 22.8 5.1 30.3-4.4s7.5-22.5-2.6-30.5l-28.3-22.5z" fill="url(#b)"/><path fill="#fff" d="M519.8 712.3l31.8-12.2-31.7-35.1-.1 47.3z"/><path fill="url(#c)" d="M519.8 712.3l31.8-12.2-31.7-35.1-.1 47.3z"/><path d="M331.2 661c-15.7-6.3-31.5 4.2-38.7 22.2s-3 36.4 12.7 42.7 31.5-4.1 38.7-22.1 3.2-36.4-12.7-42.8z" fill="#fff"/><path d="M331.2 661c-15.7-6.3-31.5 4.2-38.7 22.2s-3 36.4 12.7 42.7 31.5-4.1 38.7-22.1 3.2-36.4-12.7-42.8z" fill="url(#d)"/><path d="M430 62.2h-9.6C220.3 64.8 58.8 226.5 58.8 425.6c0 200.7 164 363.4 366.4 363.4s366.4-162.7 366.4-363.4c0-199.1-161.5-360.8-361.6-363.4zm198.3 112.5c12.8 10.2 13.3 26.6 3.9 38.5s-25.9 14.8-39.3 4.2l-5.6 53-5.6-4.4 5.6-53-22.1-17.5-28 35.2-4.8-3.8 62.5-78.7zm-5.7 250.9c0 109.7-88.9 198.6-198.6 198.6s-198.6-88.9-198.6-198.6S314.3 227 424 227s198.6 88.9 198.6 198.6zM447.8 147.3c7.2-28 28-46.6 52.6-40.3s33.9 32.7 26.7 60.7-28 46.5-52.6 40.2-33.9-32.6-26.7-60.6zm-80.6-46.5c16.9-2.8 30.8 5.4 39.7 20l-5.4 3.1c-7.7-12.7-19.4-20.1-33.4-17.7-20.9 3.5-30.9 26.2-26.6 51.7s20.9 43.9 41.8 40.3c12.2-2 20.3-10.4 24.3-22l6.1 1.3c-4.6 13.5-14.7 23.5-29.5 26-25 4.2-44.2-16.2-49-44.6s7-53.9 32-58.1zm-121.9 45.6c11.7-7.3 24.4-8.3 36.4-2.8l-2.1 5.7c-10.6-4.9-21.2-4.6-31.8 2s-17.2 17.8-10.6 28.3 13.3 10.1 32.6 6.3c26.9-5.3 37.7-1.8 44.1 8.4 9.2 14.8 2.2 30.8-13.4 40.5-11.9 7.4-25.4 8.1-39-1.1l2.9-5.6c10.6 8.2 22.4 8.8 33.5 1.9 13.9-8.7 17.6-21.2 10.3-32.9-4.8-7.8-14.8-10.1-38.8-4.9-20.8 4.5-31.1 1.2-37.3-8.8-8.7-13.9-1.2-28 13.2-37zm-64.5 53.5l4.3 3.3-33.4 43.9 31.6 24.1 25.4-33.4 4.3 3.3-25.4 33.4 35.3 26.9 35.2-46.2 4.3 3.3-38.8 51-79.9-60.9zm-59.3 219.8l16.7-2.4 7.4-15.1 7.5 15.1 16.6 2.4-12 11.8 2.8 16.6-14.9-7.9-14.9 7.9 2.9-16.6zm63.7 152.7c3.6 21.5.8 29.8-7.1 34.1-11.4 6.3-23.5-.1-30.6-13-5.5-9.8-5.8-20.5 1.5-30.6l4 2.6c-6.4 7.8-7 17.1-1.9 26.2 6.4 11.5 15.9 15.1 24.8 10.1 6-3.3 7.9-11.1 4.4-30.2-3.1-16.6-.4-24.5 7.3-28.8 10.8-6 21.4.8 28 12.6 5.4 9.6 5.9 19.7 1.6 28.8l-4.3-2c3.9-8 3.9-16.4-1-25.1s-13.2-14.6-21.4-10-7.9 9.8-5.3 25.3zM213 674.3c-15.2-13.5-13-34.8 1.3-51s35.3-20.8 50.5-7.3c10.3 9.1 12.5 21.5 8.5 33.8l-4.5-1.9c3.6-10.7 1.9-21.3-6.6-28.8-12.7-11.2-31.2-6.9-44 7.7s-15.2 33.3-2.5 44.5c7.4 6.5 16.5 7.7 25.3 4.7l2.3 4.4a30.2 30.2 0 0 1-30.3-6.1zm135.6 31.3c-8 20-26 31.5-44.9 24s-24-28.2-15.9-48.3 26.1-31.6 44.9-24.1 23.9 28.4 15.9 48.4zm70.8-23.7l-24.8-3.3-9.3 70.7-4.8-.7 9.3-70.5-24.7-3.3.5-4 54.3 7.2zm21.7 70.2l-7.7-74.8 4.9-.5 7.3 70.8 41.5-4.3.4 4zm128.8-31.5l-15.6-17.3-34.4 13.1v23.3l-4.8 1.8.4-80.7 5.1-1.9 54.1 59.8zm83.1-58l-80.2-21.8 43.5 52.3-3.8 3.1-48.1-57.8 4.1-3.4 80.4 21.8-43.6-52.4 3.8-3.1 48.1 57.8zm52.7-70.1l-12.3 22.4-66-36.1 12.3-22.4c9.8-17.8 30.5-20.7 48.7-10.7s27.1 29 17.3 46.8zm11.8-144.4l-14.9-7.9-14.9 7.9 2.9-16.6-12.1-11.8 16.7-2.4 7.4-15.1 7.5 15.1 16.6 2.4-12 11.8zm-7.4-159.9l-16-26.8-81.8 48.6-3.1-5.2 81.6-48.6-15.9-26.7 4.7-2.8 35 58.8z" fill="#fff"/><path d="M430 62.2h-9.6C220.3 64.8 58.8 226.5 58.8 425.6c0 200.7 164 363.4 366.4 363.4s366.4-162.7 366.4-363.4c0-199.1-161.5-360.8-361.6-363.4zm198.3 112.5c12.8 10.2 13.3 26.6 3.9 38.5s-25.9 14.8-39.3 4.2l-5.6 53-5.6-4.4 5.6-53-22.1-17.5-28 35.2-4.8-3.8 62.5-78.7zm-5.7 250.9c0 109.7-88.9 198.6-198.6 198.6s-198.6-88.9-198.6-198.6S314.3 227 424 227s198.6 88.9 198.6 198.6zM447.8 147.3c7.2-28 28-46.6 52.6-40.3s33.9 32.7 26.7 60.7-28 46.5-52.6 40.2-33.9-32.6-26.7-60.6zm-80.6-46.5c16.9-2.8 30.8 5.4 39.7 20l-5.4 3.1c-7.7-12.7-19.4-20.1-33.4-17.7-20.9 3.5-30.9 26.2-26.6 51.7s20.9 43.9 41.8 40.3c12.2-2 20.3-10.4 24.3-22l6.1 1.3c-4.6 13.5-14.7 23.5-29.5 26-25 4.2-44.2-16.2-49-44.6s7-53.9 32-58.1zm-121.9 45.6c11.7-7.3 24.4-8.3 36.4-2.8l-2.1 5.7c-10.6-4.9-21.2-4.6-31.8 2s-17.2 17.8-10.6 28.3 13.3 10.1 32.6 6.3c26.9-5.3 37.7-1.8 44.1 8.4 9.2 14.8 2.2 30.8-13.4 40.5-11.9 7.4-25.4 8.1-39-1.1l2.9-5.6c10.6 8.2 22.4 8.8 33.5 1.9 13.9-8.7 17.6-21.2 10.3-32.9-4.8-7.8-14.8-10.1-38.8-4.9-20.8 4.5-31.1 1.2-37.3-8.8-8.7-13.9-1.2-28 13.2-37zm-64.5 53.5l4.3 3.3-33.4 43.9 31.6 24.1 25.4-33.4 4.3 3.3-25.4 33.4 35.3 26.9 35.2-46.2 4.3 3.3-38.8 51-79.9-60.9zm-59.3 219.8l16.7-2.4 7.4-15.1 7.5 15.1 16.6 2.4-12 11.8 2.8 16.6-14.9-7.9-14.9 7.9 2.9-16.6zm63.7 152.7c3.6 21.5.8 29.8-7.1 34.1-11.4 6.3-23.5-.1-30.6-13-5.5-9.8-5.8-20.5 1.5-30.6l4 2.6c-6.4 7.8-7 17.1-1.9 26.2 6.4 11.5 15.9 15.1 24.8 10.1 6-3.3 7.9-11.1 4.4-30.2-3.1-16.6-.4-24.5 7.3-28.8 10.8-6 21.4.8 28 12.6 5.4 9.6 5.9 19.7 1.6 28.8l-4.3-2c3.9-8 3.9-16.4-1-25.1s-13.2-14.6-21.4-10-7.9 9.8-5.3 25.3zM213 674.3c-15.2-13.5-13-34.8 1.3-51s35.3-20.8 50.5-7.3c10.3 9.1 12.5 21.5 8.5 33.8l-4.5-1.9c3.6-10.7 1.9-21.3-6.6-28.8-12.7-11.2-31.2-6.9-44 7.7s-15.2 33.3-2.5 44.5c7.4 6.5 16.5 7.7 25.3 4.7l2.3 4.4a30.2 30.2 0 0 1-30.3-6.1zm135.6 31.3c-8 20-26 31.5-44.9 24s-24-28.2-15.9-48.3 26.1-31.6 44.9-24.1 23.9 28.4 15.9 48.4zm70.8-23.7l-24.8-3.3-9.3 70.7-4.8-.7 9.3-70.5-24.7-3.3.5-4 54.3 7.2zm21.7 70.2l-7.7-74.8 4.9-.5 7.3 70.8 41.5-4.3.4 4zm128.8-31.5l-15.6-17.3-34.4 13.1v23.3l-4.8 1.8.4-80.7 5.1-1.9 54.1 59.8zm83.1-58l-80.2-21.8 43.5 52.3-3.8 3.1-48.1-57.8 4.1-3.4 80.4 21.8-43.6-52.4 3.8-3.1 48.1 57.8zm52.7-70.1l-12.3 22.4-66-36.1 12.3-22.4c9.8-17.8 30.5-20.7 48.7-10.7s27.1 29 17.3 46.8zm11.8-144.4l-14.9-7.9-14.9 7.9 2.9-16.6-12.1-11.8 16.7-2.4 7.4-15.1 7.5 15.1 16.6 2.4-12 11.8zm-7.4-159.9l-16-26.8-81.8 48.6-3.1-5.2 81.6-48.6-15.9-26.7 4.7-2.8 35 58.8z" fill="url(#e)"/><path d="M685.9 550.2c-16.2-8.9-34.5-6.7-42.7 8.2l-9.9 18.1 58.9 32.2 9.9-18.1c8.1-14.9.1-31.5-16.2-40.4z" fill="#fff"/><path d="M685.9 550.2c-16.2-8.9-34.5-6.7-42.7 8.2l-9.9 18.1 58.9 32.2 9.9-18.1c8.1-14.9.1-31.5-16.2-40.4z" fill="url(#f)"/><path d="M425.2 62.2zM420.4 62.2z" fill="#5d006d"/><path d="M424 227c-109.7 0-198.6 88.9-198.6 198.6S314.3 624.2 424 624.2s198.6-88.9 198.6-198.6S533.7 227 424 227zm.2 390.2c-105.8 0-191.6-85.8-191.6-191.6S318.4 234 424.2 234s191.6 85.8 191.6 191.6S530 617.2 424.2 617.2z" fill="#fff"/><path d="M424.2 234c-105.8 0-191.6 85.8-191.6 191.6s85.8 191.6 191.6 191.6 191.6-85.8 191.6-191.6S530 234 424.2 234zM395 487.1h-90V364.8h86.6V383h-66.1v31h50.3v18l-50.3-.2V469H395v18.1zm40.1-53.1l-38.3-.2V416h38.3v18zm95.8 42.9q-12.1 10.5-34.5 10.5c-15.2 0-27.1-3.4-35.8-10.3s-13-16.3-13-28.4h23c.7 5.3 2.2 9.2 4.4 11.9 4 4.8 10.8 7.1 20.5 7.1 5.8 0 10.5-.6 14.1-1.9 6.9-2.4 10.3-6.9 10.3-13.4a10.1 10.1 0 0 0-5-8.9c-3.4-2-8.7-3.8-16-5.4l-12.5-2.7c-12.3-2.7-20.7-5.7-25.3-8.9-7.8-5.3-11.6-13.7-11.6-25a33.1 33.1 0 0 1 11.4-25.8c7.6-6.9 18.7-10.3 33.5-10.3 12.3 0 22.8 3.2 31.4 9.7s13.2 15.8 13.6 28.1h-23.1c-.4-7-3.5-11.9-9.3-14.8a31.9 31.9 0 0 0-14.3-2.9c-6.4 0-11.4 1.3-15.2 3.8a11.9 11.9 0 0 0-5.7 10.5 10.1 10.1 0 0 0 5.6 9.3q3.6 2.1 15.3 4.8l20.2 4.8c8.9 2.1 15.5 4.9 19.9 8.4 6.9 5.4 10.3 13.3 10.3 23.6a33.1 33.1 0 0 1-12.2 26.2z" fill="#fff"/><path d="M424.2 234c-105.8 0-191.6 85.8-191.6 191.6s85.8 191.6 191.6 191.6 191.6-85.8 191.6-191.6S530 234 424.2 234zM395 487.1h-90V364.8h86.6V383h-66.1v31h50.3v18l-50.3-.2V469H395v18.1zm40.1-53.1l-38.3-.2V416h38.3v18zm95.8 42.9q-12.1 10.5-34.5 10.5c-15.2 0-27.1-3.4-35.8-10.3s-13-16.3-13-28.4h23c.7 5.3 2.2 9.2 4.4 11.9 4 4.8 10.8 7.1 20.5 7.1 5.8 0 10.5-.6 14.1-1.9 6.9-2.4 10.3-6.9 10.3-13.4a10.1 10.1 0 0 0-5-8.9c-3.4-2-8.7-3.8-16-5.4l-12.5-2.7c-12.3-2.7-20.7-5.7-25.3-8.9-7.8-5.3-11.6-13.7-11.6-25a33.1 33.1 0 0 1 11.4-25.8c7.6-6.9 18.7-10.3 33.5-10.3 12.3 0 22.8 3.2 31.4 9.7s13.2 15.8 13.6 28.1h-23.1c-.4-7-3.5-11.9-9.3-14.8a31.9 31.9 0 0 0-14.3-2.9c-6.4 0-11.4 1.3-15.2 3.8a11.9 11.9 0 0 0-5.7 10.5 10.1 10.1 0 0 0 5.6 9.3q3.6 2.1 15.3 4.8l20.2 4.8c8.9 2.1 15.5 4.9 19.9 8.4 6.9 5.4 10.3 13.3 10.3 23.6a33.1 33.1 0 0 1-12.2 26.2z" fill="url(#g)"/><path d="M232.6 425.6c0 105.8 85.8 191.6 191.6 191.6-105.8 0-191.6-85.8-191.6-191.6zM424.2 234c-105.8 0-191.6 85.8-191.6 191.6 0-105.8 85.8-191.6 191.6-191.6zM424.2 234c105.8 0 191.6 85.8 191.6 191.6C615.8 319.8 530 234 424.2 234z" fill="#666"/><path d="M424.2 617.2c105.8 0 191.6-85.8 191.6-191.6 0 105.8-85.8 191.6-191.6 191.6z" fill="#666"/><path fill="#fff" d="M710.1 417.3l-7.5-15.1-7.4 15.1-16.7 2.4 12.1 11.8-2.9 16.6 14.9-7.9 14.9 7.9-2.8-16.6 12-11.8-16.6-2.4zM145.6 440.2l14.9 7.9-2.8-16.6 12-11.8-16.6-2.4-7.5-15.1-7.4 15.1-16.7 2.4 12.1 11.8-2.9 16.6 14.9-7.9zM211.9 557.1c4.9 8.7 4.9 17.1 1 25.1l4.3 2c4.3-9.1 3.8-19.2-1.6-28.8-6.6-11.8-17.2-18.6-28-12.6-7.7 4.3-10.4 12.2-7.3 28.8 3.5 19.1 1.6 26.9-4.4 30.2-8.9 5-18.4 1.4-24.8-10.1-5.1-9.1-4.5-18.4 1.9-26.2l-4-2.6c-7.3 10.1-7 20.8-1.5 30.6 7.1 12.9 19.2 19.3 30.6 13 7.9-4.3 10.7-12.6 7.1-34.1-2.6-15.5-1.7-21.4 5.3-25.3s16.4 1 21.4 10zM215.7 671.3c-12.7-11.2-10.3-30 2.5-44.5s31.3-18.9 44-7.7c8.5 7.5 10.2 18.1 6.6 28.8l4.5 1.9c4-12.3 1.8-24.7-8.5-33.8-15.2-13.5-36.2-8.9-50.5 7.3s-16.5 37.5-1.3 51a30.2 30.2 0 0 0 30.3 6.1L241 676c-8.8 3-17.9 1.8-25.3-4.7zM332.7 657.2c-18.8-7.5-36.9 4-44.9 24.1s-3 40.8 15.9 48.3 36.9-4 44.9-24 3-40.8-15.9-48.4zm11.2 46.6c-7.2 18-22.8 28.4-38.7 22.1s-19.9-24.7-12.7-42.7 23-28.5 38.7-22.2 19.9 24.8 12.7 42.8zM365.1 674.8l24.7 3.3-9.3 70.5 4.8.7 9.3-70.7 24.8 3.3.5-3.9-54.3-7.2-.5 4zM445.6 747.6l-7.3-70.8-4.9.5 7.7 74.8 46.4-4.8-.4-4-41.5 4.3zM515.4 660.8l-.4 80.7 4.8-1.8v-23.3l34.4-13.1 15.6 17.3 4.7-1.9-54.1-59.8zm4.4 51.5V665l31.7 35.1zM609.1 601.3l-3.8 3.1 43.6 52.4-80.4-21.8-4.1 3.4 48.1 57.8 3.8-3.1-43.5-52.3 80.2 21.8 4.2-3.5-48.1-57.8zM688.4 545.7c-18.2-10-38.9-7.1-48.7 10.7l-12.3 22.4 66 36.1 12.3-22.4c9.8-17.8 1-36.8-17.3-46.8zm13.7 44.9l-9.9 18.1-58.9-32.2 9.9-18.1c8.2-14.9 26.5-17.1 42.7-8.2s24.3 25.5 16.2 40.4zM223.6 309.5l38.8-51-4.3-3.3-35.2 46.2-35.3-26.9 25.4-33.4-4.3-3.3-25.4 33.4-31.6-24.1 33.4-43.9-4.3-3.3-37.1 48.7 79.9 60.9zM269.4 192.2c24-5.2 34-2.9 38.8 4.9 7.3 11.7 3.6 24.2-10.3 32.9-11.1 6.9-22.9 6.3-33.5-1.9l-2.9 5.6c13.6 9.2 27.1 8.5 39 1.1 15.6-9.7 22.6-25.7 13.4-40.5-6.4-10.2-17.2-13.7-44.1-8.4-19.3 3.8-26.9 2.8-32.6-6.3s-.4-21.5 10.6-28.3 21.2-6.9 31.8-2l2.1-5.7c-12-5.5-24.7-4.5-36.4 2.8-14.4 9-21.9 23.1-13.2 37 6.2 10 16.5 13.3 37.3 8.8zM384.2 203.5c14.8-2.5 24.9-12.5 29.5-26l-6.1-1.3c-4 11.6-12.1 20-24.3 22-20.9 3.6-37.5-14.8-41.8-40.3s5.7-48.2 26.6-51.7c14-2.4 25.7 5 33.4 17.7l5.4-3.1c-8.9-14.6-22.8-22.8-39.7-20-25 4.2-36.8 29.6-32 58.1s24 48.8 49 44.6zM474.5 207.9c24.6 6.3 45.4-12.2 52.6-40.2s-2.1-54.4-26.7-60.7-45.4 12.3-52.6 40.3 2.1 54.3 26.7 60.6zM453.9 149c6.5-25.1 24.6-42 45.1-36.7s28.3 28.8 21.9 53.8-24.3 41.8-45.1 36.6-28.3-28.7-21.9-53.7zM532.4 226.9l4.8 3.8 28-35.2 22.1 17.5-5.6 53 5.6 4.4 5.6-53c13.4 10.6 29.9 7.7 39.3-4.2s8.9-28.3-3.9-38.5l-33.4-26.5zm63.9-70.6l28.3 22.5c10.1 8 10.2 21 2.6 30.5s-20.2 12.4-30.3 4.4l-28.3-22.5zM674.9 229.5l15.9 26.7-81.6 48.6 3.1 5.2 81.8-48.6 16 26.8 4.5-2.7-35-58.8-4.7 2.8zM325.5 431.8l50.3.2v-18h-50.3v-31h66.1v-18.2H305v122.3h90V469h-69.5v-37.2zM396.8 433.8l38.3.2v-18h-38.3v17.8zM532.8 427c-4.4-3.5-11-6.3-19.9-8.4l-20.2-4.8q-11.7-2.7-15.3-4.8a10.1 10.1 0 0 1-5.6-9.3 11.9 11.9 0 0 1 5.7-10.5c3.8-2.5 8.8-3.8 15.2-3.8a31.9 31.9 0 0 1 14.3 2.9c5.8 2.9 8.9 7.8 9.3 14.8h23.1c-.4-12.3-4.9-21.6-13.6-28.1s-19.1-9.7-31.4-9.7c-14.8 0-25.9 3.4-33.5 10.3a33.1 33.1 0 0 0-11.4 25.8c0 11.3 3.8 19.7 11.6 25 4.6 3.2 13 6.2 25.3 8.9l12.5 2.7c7.3 1.6 12.6 3.4 16 5.4a10.1 10.1 0 0 1 5 8.9c0 6.5-3.4 11-10.3 13.4-3.6 1.3-8.3 1.9-14.1 1.9-9.7 0-16.5-2.3-20.5-7.1-2.2-2.7-3.7-6.6-4.4-11.9h-23c0 12.1 4.3 21.5 13 28.4s20.6 10.3 35.8 10.3 26.4-3.5 34.5-10.5a33.1 33.1 0 0 0 12.2-26.3c0-10.2-3.4-18.1-10.3-23.5z"/></svg>