<svg id="Capa_1" xmlns="http://www.w3.org/2000/svg" viewBox="0 0 48 48"><style>.st0{opacity:.7;enable-background:new}.st0,.st1{fill:#fff}.st2{fill:#820263}.st3{fill:url(#SVGID_1_)}.st4{fill:url(#SVGID_2_)}.st5{fill:#022457}</style><circle class="st0" cx="24" cy="24" r="24"/><circle class="st1" cx="24" cy="24" r="20.8"/><path class="st2" d="M24.3 17.5l13.2 13.2-6.6 6.6-6.6-6.6z"/><linearGradient id="SVGID_1_" gradientUnits="userSpaceOnUse" x1="27.078" y1="28.692" x2="30.128" y2="31.741" gradientTransform="matrix(1 0 0 -1 0 50)"><stop offset="0" stop-color="#49023c"/><stop offset=".982" stop-color="#820263"/></linearGradient><path class="st3" d="M30.9 10.9l6.6 6.6-6.6 6.6-6.6-6.6z"/><path class="st2" d="M23.7 30.5L10.5 17.3l6.6-6.6 6.6 6.6z"/><linearGradient id="SVGID_2_" gradientUnits="userSpaceOnUse" x1="21.571" y1="23.972" x2="17.595" y2="19.995" gradientTransform="matrix(1 0 0 -1 0 50)"><stop offset="0" stop-color="#49023c"/><stop offset=".982" stop-color="#820263"/></linearGradient><path class="st4" d="M17.1 37.1l-6.6-6.6 6.6-6.6 6.6 6.6z"/><path class="st5" d="M24 47c-3.1 0-6.1-.6-9-1.8-2.7-1.2-5.2-2.8-7.3-4.9C5.6 38.1 4 35.7 2.8 33 1.6 30.1 1 27.1 1 24s.6-6.1 1.8-9C4 12.3 5.6 9.9 7.7 7.7S12.3 4 15 2.8C17.9 1.6 20.9 1 24 1s6.1.6 9 1.8c2.7 1.2 5.2 2.8 7.3 4.9 2.1 2.1 3.8 4.6 4.9 7.3 1.2 2.8 1.8 5.8 1.8 9s-.6 6.1-1.8 9c-1.2 2.7-2.8 5.2-4.9 7.3-2.1 2.1-4.6 3.8-7.3 4.9-2.9 1.2-5.9 1.8-9 1.8zm0-42.7c-5.3 0-10.2 2.1-14 5.8s-5.8 8.7-5.8 14S6.3 34.3 10 38c3.7 3.7 8.7 5.8 14 5.8s10.2-2.1 14-5.8c3.7-3.7 5.8-8.7 5.8-14S41.7 13.8 38 10c-3.8-3.7-8.7-5.7-14-5.7z"/></svg>